<svg width="101" height="82" viewBox="0 0 101 82" fill="none" xmlns="http://www.w3.org/2000/svg">
<path d="M24.0797 20.5992C25.8039 19.5365 28.1651 19.9249 29.3536 21.4667C30.542 23.0085 30.1076 25.12 28.3834 26.1827C25.6907 27.8424 22.4446 29.6035 19.6998 31.2062C16.8166 32.8896 14.2037 34.5511 12.1186 36.3242C10.0356 38.0955 8.66458 39.8248 8.02007 41.5908C7.40493 43.2765 7.34995 45.2692 8.44114 47.8148L8.56174 48.0825C9.17398 49.3866 9.93782 50.1355 10.6723 50.5791C11.4668 51.0588 12.4809 51.3341 13.7647 51.3397C16.4513 51.3513 19.9258 50.1592 23.155 47.97L23.8543 47.5073C27.3875 45.2243 31.5065 43.4081 35.7256 43.0629C40.5053 42.6718 45.1267 44.2127 48.532 48.3247C51.7781 52.2446 52.4632 56.4128 51.7365 59.9525C51.0537 63.2784 49.0789 66.2127 46.652 67.8141L27.8111 81.2591L27.6555 81.3651C26.0263 82.4115 23.7475 82.1416 22.4822 80.7237C21.1764 79.2601 21.4444 77.1274 23.081 75.9594L41.9653 62.4831L42.0457 62.4264L42.1293 62.3724C42.7401 61.983 43.8745 60.688 44.2769 58.7283C44.6467 56.927 44.3625 54.6855 42.4372 52.3605C40.6709 50.2277 38.6662 49.6325 36.4164 49.8166C34.0454 50.0107 31.2194 51.1171 28.3178 52.9887L27.737 53.3737C23.6946 56.1143 18.6292 58.1422 13.7277 58.1209C11.2175 58.11 8.67433 57.5553 6.42787 56.1986C4.31163 54.9206 2.6781 53.063 1.57401 50.7173L1.36031 50.2414C-0.29579 46.3778 -0.391566 42.7827 0.811231 39.4868C1.98473 36.2714 4.28991 33.6244 6.89336 31.4105C9.49461 29.1985 12.5789 27.2649 15.5537 25.528C18.6666 23.7105 21.4399 22.2262 24.0797 20.5992Z" fill="white"/>
<path d="M36 33.6786V18L64.4375 12.8516V0H101V82C97.5179 82 99.1812 82 96.9375 82C94.6938 82 97.5179 82 92.875 82V6.83333H72.5625V82C69.0804 82 70.7437 82 68.5 82C66.2563 82 67.9196 82 64.4375 82V19.6849L44.125 23.5V33.6786C40.0625 33.6786 42.306 33.6786 40.0625 33.6786C37.819 33.6786 38.9018 33.6786 36 33.6786Z" fill="white"/>
</svg>
